<?xml version="1.0" encoding="UTF-8" standalone="no"?><!DOCTYPE svg PUBLIC "-//W3C//DTD SVG 1.1//EN" "http://www.w3.org/Graphics/SVG/1.1/DTD/svg11.dtd"><svg width="100%" height="100%" viewBox="0 0 1724 441" version="1.1" xmlns="http://www.w3.org/2000/svg" xmlns:xlink="http://www.w3.org/1999/xlink" xml:space="preserve" xmlns:serif="http://www.serif.com/" style="fill-rule:evenodd;clip-rule:evenodd;stroke-linejoin:round;stroke-miterlimit:2;"><rect id="Artboard1" x="0" y="0" width="1723.33" height="440.344" style="fill:none;"/><g><path d="M26.291,417.447c0,-0.678 149.481,-396.074 149.481,-396.074c6.779,0.339 53.047,0.677 59.488,1.016c-0,0 110.5,275.405 109.822,276.083l-180.495,-0.509c1.694,-4.745 13.558,-38.471 15.253,-43.217c-0,0 93.044,-0.508 93.044,-1.525c0,-1.695 -69.656,-177.445 -69.656,-177.445l-117.958,339.128l-58.979,2.543Z" style="fill:#00999b;fill-rule:nonzero;"/><path d="M397.96,425.582l0,-408.277l51.352,0l0,358.958l127.11,0l0,49.319l-178.462,-0Z" style="fill:#00999b;fill-rule:nonzero;"/><path d="M628.791,62.048l0,-47.285l95.587,-0c83.723,-0 135.414,3.05 155.074,9.152c20.337,6.44 36.353,18.134 48.047,35.082c11.694,16.948 18.219,37.794 19.575,62.538c0.339,3.39 0.509,7.796 0.509,13.219c-0,14.576 -4.237,29.829 -12.711,45.76c-14.237,27.795 -39.32,46.268 -75.249,55.42c-23.049,5.762 -72.707,8.643 -148.973,8.643l-28.472,0l-0,178.462l-53.387,0l0,-226.763l98.638,-1.526c65.419,-0.339 102.704,-1.695 111.856,-4.067c16.27,-4.068 29.066,-11.949 38.387,-23.643c9.322,-11.694 13.982,-24.659 13.982,-38.895c0,-13.22 -3.898,-25.422 -11.694,-36.608c-10.168,-14.575 -27.964,-23.727 -53.386,-27.456c-12.88,-1.355 -48.81,-2.033 -107.789,-2.033l-89.994,-0Z" style="fill:#00999b;fill-rule:nonzero;"/><path d="M1000.97,421.006l-0,-401.667l57.962,-0l-0,162.7l167.276,0l0,53.895l-167.276,-0l-0,185.072l-57.962,-0Zm263.371,-0l0,-401.667l59.996,-0l0,401.667l-59.996,-0Z" style="fill:#00999b;fill-rule:nonzero;"/><path d="M1378.23,417.447l149.481,-396.074l59.487,1.016c0,0 110.501,275.405 109.823,276.083l-180.496,-0.509c1.695,-4.745 13.558,-38.471 15.253,-43.217l93.045,-1.525l-69.657,-177.445c0,-0 -113.89,328.621 -117.957,339.128l-58.979,2.543Z" style="fill:#00999b;fill-rule:nonzero;"/></g></svg>